<svg xmlns="http://www.w3.org/2000/svg" xmlns:xlink="http://www.w3.org/1999/xlink" xmlns:lucid="lucid" width="2054"
     height="1821">
    <g transform="translate(0 0)" lucid:page-tab-id="_bMwUaXG1Sdw">
        <path d="M0 0h2054v1821H0z" fill="#fff"/>
        <path d="M200 920h1259.8v120H200z" stroke="#000" stroke-width="2" fill="#fff"/>
        <use xlink:href="#a" transform="matrix(1,0,0,1,205,925) translate(0 14.4)"/>
        <path d="M640 460h917.97v400H640z" fill="#fff"/>
        <path d="M650.07 460h4.02m8.04 0h4.03m8.05 0h4.03m8.05 0h4.03m8.05 0h4.03m8.06 0h4.02m8.06 0h4.02m8.06 0h4.02m8.05 0h4.02m8.05 0h4.03m8.05 0h4.03m8.05 0h4.03m8.05 0h4.03m8.06 0h4m8.07 0h4.02m8.04 0h4.03m8.05 0h4.03m8.05 0h4.03m8.05 0h4.03m8.06 0h4.02m8.06 0h4.02m8.06 0h4.02m8.05 0h4.02m8.05 0h4.03m8.05 0h4.03m8.05 0h4.03m8.05 0h4.03m8.06 0h4m8.07 0h4.02m8.04 0h4.03m8.05 0h4.03m8.05 0h4.03m8.05 0h4.03m8.06 0h4.02m8.06 0h4.02m8.06 0h4.02m8.05 0h4.02m8.05 0h4.03m8.05 0h4.03m8.05 0h4.03m8.05 0h4.03m8.06 0h4m8.07 0h4.02m8.04 0h4.03m8.05 0h4.03m8.05 0h4.03m8.05 0h4.03m8.06 0h4.02m8.06 0h4.02m8.06 0h4.02m8.05 0h4.02m8.05 0h4.03m8.05 0h4.03m8.05 0h4.03m8.05 0h4.03m8.06 0h4m8.07 0h4.02m8.04 0h4.03m8.05 0h4.03m8.05 0h4.03m8.05 0h4.03m8.06 0h4.02m8.06 0h4.02m8.06 0h4.02m8.05 0h4.02m8.05 0h4.03m8.05 0h4.03m8.05 0h4.03m8.05 0h4.03m8.06 0h4m8.07 0h4.02m8.04 0h4.03m8.05 0h4.03m8.05 0h4.03m8.05 0h4.03m8.06 0h2v2.02m0 8.08v4.04m0 8.08v4.04m0 8.08v4.04m0 8.08v4.05m0 8.1v4.03m0 8.08v4.05m0 8.08v4.04m0 8.08V559m0 8.07v4.04m0 8.1v4.03m0 8.08v4.05m0 8.08v4.04m0 8.1v4.03m0 8.08v4.04m0 8.08v4.04m0 8.08v4.04m0 8.08v4.04m0 8.08v4.04m0 8.08v4.04m0 8.08v4.04m0 8.1v4.03m0 8.08v4.04m0 8.07v4.04m0 8.1v4.03m0 8.08v4.05m0 8.08v4.04m0 8.08v4.04m0 8.07v4.04m0 8.1v4.04m0 8.08v4.04m0 8.08v4.04m0 8.08v4.04m0 8.08V860h-2m-8.05 0h-4.02m-8.05 0h-4.03m-8.05 0h-4.03m-8.05 0h-4.03m-8.05 0h-4.03m-8.06 0h-4m-8.07 0h-4.02m-8.04 0h-4.03m-8.05 0h-4.03m-8.05 0h-4.03m-8.05 0h-4.03m-8.06 0h-4.02m-8.06 0h-4.02m-8.06 0h-4.02m-8.05 0h-4.02m-8.05 0h-4.03m-8.05 0h-4.03m-8.05 0h-4.03m-8.05 0h-4.03m-8.06 0h-4m-8.07 0h-4.02m-8.04 0h-4.03m-8.05 0h-4.03m-8.05 0h-4.03m-8.05 0H1254m-8.06 0h-4.02m-8.06 0h-4.02m-8.06 0h-4.02m-8.05 0h-4.02m-8.05 0h-4.03m-8.05 0h-4.03m-8.05 0h-4.03m-8.05 0h-4.03m-8.06 0h-4m-8.07 0h-4.02m-8.04 0h-4.03m-8.05 0h-4.03m-8.05 0h-4.03m-8.05 0h-4.03m-8.06 0h-4.02m-8.06 0h-4.02m-8.06 0h-4.02m-8.05 0h-4.02m-8.05 0h-4.03m-8.05 0h-4.03m-8.05 0h-4.03m-8.05 0h-4.03m-8.06 0h-4m-8.07 0h-4.02m-8.04 0h-4.03m-8.05 0h-4.03m-8.05 0h-4.03m-8.05 0h-4.03m-8.06 0h-4.02m-8.06 0h-4.02m-8.06 0h-4.02m-8.05 0h-4.02m-8.05 0h-4.03m-8.05 0h-4.03m-8.05 0h-4.03m-8.05 0h-4.03m-8.06 0h-4m-8.07 0H795m-8.04 0h-4.03m-8.05 0h-4.03m-8.05 0h-4.03m-8.05 0h-4.03m-8.06 0h-4.02m-8.06 0h-4.02m-8.06 0h-4.02m-8.05 0h-4.02m-8.05 0h-4.03m-8.05 0h-4.03m-8.05 0h-4.03m-8.05 0h-4.03m-8.06 0h-2v-2.02m0-8.08v-4.04m0-8.08v-4.04m0-8.08v-4.04m0-8.08v-4.05m0-8.1v-4.03m0-8.08v-4.05m0-8.08v-4.04m0-8.08V761m0-8.07v-4.04m0-8.1v-4.03m0-8.08v-4.05m0-8.08v-4.04m0-8.1v-4.03m0-8.08v-4.04m0-8.08v-4.04m0-8.08v-4.04m0-8.08v-4.04m0-8.08v-4.04m0-8.08v-4.04m0-8.08v-4.04m0-8.1v-4.03m0-8.08v-4.04m0-8.07v-4.04m0-8.1v-4.03m0-8.08v-4.05m0-8.08v-4.04m0-8.08v-4.04m0-8.07v-4.04m0-8.1v-4.04m0-8.08v-4.04m0-8.08v-4.04m0-8.08v-4.04m0-8.08V460h2"
              stroke="#000" stroke-width="2" fill="none"/>
        <use xlink:href="#b" transform="matrix(1,0,0,1,640,460) translate(5.01 29.89888888888889)"/>
        <path d="M436.16 526h98.73l13.8 13.8V595H436.15z" stroke="#000" stroke-width="2" fill="#fff"/>
        <path d="M534.9 526.95v12.85h12.84" stroke="#000" stroke-width="2" fill="#fff"/>
        <use xlink:href="#c" transform="matrix(1,0,0,1,441.1618319352272,531) translate(0 21.775)"/>
        <use xlink:href="#d" transform="matrix(1,0,0,1,441.1618319352272,531) translate(0 43.375)"/>
        <path d="M436.16 629.5h98.73l13.8 13.8v55.2H436.15z" stroke="#000" stroke-width="2" fill="#fff"/>
        <path d="M534.9 630.45v12.85h12.84" stroke="#000" stroke-width="2" fill="#fff"/>
        <use xlink:href="#e" transform="matrix(1,0,0,1,441.1618319352272,634.5) translate(0 21.775)"/>
        <use xlink:href="#f" transform="matrix(1,0,0,1,441.1618319352272,634.5) translate(54.95 21.775)"/>
        <use xlink:href="#g" transform="matrix(1,0,0,1,441.1618319352272,634.5) translate(0 43.375)"/>
        <path d="M436.16 733h98.73l13.8 13.8V802H436.15z" stroke="#000" stroke-width="2" fill="#fff"/>
        <path d="M534.9 733.95v12.85h12.84" stroke="#000" stroke-width="2" fill="#fff"/>
        <use xlink:href="#h" transform="matrix(1,0,0,1,441.16183193522727,738) translate(0 32.8375)"/>
        <path d="M250.37 424.44c0 2.45-2 4.44-4.44 4.44-2.45 0-4.43-2-4.43-4.44 0-2.45 1.98-4.44 4.43-4.44 2.45 0 4.44 2 4.44 4.44z"
              stroke="#000" stroke-width="2" fill="#fff"/>
        <path d="M245.93 428.88v12.42L260 455.5m-14.07-14.2l-14.06 14.2m0-22.2H260" stroke="#000" stroke-width="2"
              fill="none"/>
        <path d="M231.87 420H260v57.5h-28.13z" fill="none"/>
        <use xlink:href="#i" transform="matrix(1,0,0,1,151.86813186813185,455.5) translate(49.599999999999994 14.6)"/>
        <path d="M361.33 424.44c0 2.45-2 4.44-4.44 4.44-2.46 0-4.45-2-4.45-4.44 0-2.45 2-4.44 4.44-4.44 2.44 0 4.43 2 4.43 4.44z"
              stroke="#000" stroke-width="2" fill="#fff"/>
        <path d="M356.9 428.88v12.42l14.05 14.2m-14.06-14.2l-14.08 14.2m0-22.2h28.13" stroke="#000" stroke-width="2"
              fill="none"/>
        <path d="M342.82 420h28.13v57.5h-28.13z" fill="none"/>
        <use xlink:href="#j" transform="matrix(1,0,0,1,262.82216225565213,455.5) translate(56.025 14.6)"/>
        <path d="M300.53 536.44c0 2.45-1.98 4.43-4.44 4.43-2.46 0-4.44-1.98-4.44-4.43 0-2.45 1.98-4.44 4.43-4.44 2.45 0 4.43 2 4.43 4.44z"
              stroke="#000" stroke-width="2" fill="#fff"/>
        <path d="M296.1 540.88v12.42l14.06 14.2m-14.07-14.2l-14.07 14.2m0-22.2h28.13" stroke="#000" stroke-width="2"
              fill="none"/>
        <path d="M282.03 532h28.13v57.5h-28.13z" fill="none"/>
        <use xlink:href="#k" transform="matrix(1,0,0,1,202.02897414227482,567.5) translate(56.55 14.4)"/>
        <use xlink:href="#l" transform="matrix(1,0,0,1,202.02897414227482,567.5) translate(49.074999999999996 36)"/>
        <use xlink:href="#m" transform="matrix(1,0,0,1,202.02897414227482,567.5) translate(78.02499999999999 36)"/>
        <path d="M305.88 560.75h94c.06 0 .12-.06.12-.13 0-.06.06-.12.13-.12h16.53M305.9 560.75h-4.02" stroke="#19967d"
              stroke-width="2" fill="none"/>
        <path d="M431.93 560.5l-14.27 4.64v-9.28z" stroke="#19967d" stroke-width="2" fill="#19967d"/>
        <path d="M305.38 560.75H388c6.63 0 12 5.37 12 12V652c0 6.63 5.37 12 12 12h6.78M305.4 560.75h-3.52"
              stroke="#19967d" fill="none"/>
        <path d="M433.54 664l-14.26 4.64v-9.28z" stroke="#19967d" fill="#19967d"/>
        <path d="M305.88 560.75H388c6.63 0 12 5.37 12 12V755.5c0 6.63 5.37 12 12 12h4.66M305.9 560.75h-4.02"
              stroke="#19967d" stroke-width="2" fill="none"/>
        <path d="M431.93 767.5l-14.27 4.64v-9.28z" stroke="#19967d" stroke-width="2" fill="#19967d"/>
        <path d="M550.7 560.5h15.9c2.76 0 5 2.24 5 5v40.17c0 2.76 2.24 5 5 5h105.93" stroke="#19967d" stroke-width="2"
              fill="none"/>
        <path d="M550.7 561.5h-1v-2h1z" fill="#19967d"/>
        <path d="M697.8 610.67l-14.27 4.63v-9.27z" stroke="#19967d" stroke-width="2" fill="#19967d"/>
        <path d="M1440 351h86.2l13.8 13.8V420h-100z" stroke="#000" stroke-width="2" fill="#fff"/>
        <path d="M1526.2 351.95v12.85h12.85" stroke="#000" stroke-width="2" fill="#fff"/>
        <use xlink:href="#n" transform="matrix(1,0,0,1,1445,356) translate(-1.4000000000000057 33.1)"/>
        <path d="M1342.03 560h160v268h-160z" stroke="#000" stroke-width="2" fill="#fff"/>
        <use xlink:href="#o" transform="matrix(1,0,0,1,1347.0289741422748,565) translate(39.55 123.24375)"/>
        <use xlink:href="#p" transform="matrix(1,0,0,1,1347.0289741422748,565) translate(90.45 123.24375)"/>
        <use xlink:href="#q"
             transform="matrix(1,0,0,1,1347.0289741422748,565) translate(20.574999999999996 144.84375)"/>
        <path d="M550.7 664h15.9c2.76 0 5-2.24 5-5v-43.33c0-2.76 2.24-5 5-5h105.93" stroke="#19967d" stroke-width="2"
              fill="none"/>
        <path d="M550.7 665h-1v-2h1z" fill="#19967d"/>
        <path d="M697.8 610.67l-14.27 4.63v-9.27z" stroke="#19967d" stroke-width="2" fill="#19967d"/>
        <path d="M550.7 767.5h131.83" stroke="#19967d" stroke-width="2" fill="none"/>
        <path d="M550.72 768.5h-1.03v-2h1.02z" fill="#19967d"/>
        <path d="M697.8 767.5l-14.27 4.64v-9.28z" stroke="#19967d" stroke-width="2" fill="#19967d"/>
        <path d="M1228.3 599h94.23" stroke="#c92d39" stroke-width="2" fill="none"/>
        <path d="M1228.32 600h-1.06l.03-1-.04-1h1.06z" fill="#c92d39"/>
        <path d="M1337.8 599l-14.27 4.64v-9.28z" stroke="#c92d39" stroke-width="2" fill="#c92d39"/>
        <path d="M1438.5 385.5H257.93c-6.62 0-12 5.37-12 12v5.1" stroke="#c92d39" fill="none"/>
        <path d="M1439 386h-.5v-1h.5z" fill="#c92d39"/>
        <path d="M245.93 417.38l-4.63-14.27h9.27z" stroke="#c92d39" fill="#c92d39"/>
        <path d="M951.22 620.5V611c0-6.63 5.37-12 12-12h118.5" stroke="#666" stroke-width="2" fill="none"/>
        <path d="M951.22 635.76l-4.64-14.26h9.27z" stroke="#666" stroke-width="2" fill="#666"/>
        <path d="M1082.7 599l.04 1h-1.06v-2h1.06z" fill="#666"/>
        <path d="M175.06 180.96h363.66v84.67H175.06z" stroke="#000" stroke-opacity="0" stroke-width="2" fill="#fff"
              fill-opacity="0"/>
        <use xlink:href="#r"
             transform="matrix(1,0,0,1,180.06117324464975,185.96225288531863) translate(14.87654320987653 43.63888888888889)"/>
        <use xlink:href="#s"
             transform="matrix(1,0,0,1,180.06117324464975,185.96225288531863) translate(165.07407407407408 43.63888888888889)"/>
        <use xlink:href="#t"
             transform="matrix(1,0,0,1,180.06117324464975,185.96225288531863) translate(209.92592592592592 43.63888888888889)"/>
        <path d="M200 340h1462.03v540H200z" fill-opacity="0"/>
        <path d="M207 340h6.02m4 0h6m4.02 0h6m4 0h6.02m4 0h6m4.02 0h6m4 0h6.02m4 0h6.02m4 0h6m4 0h6.02m4 0h6.02m4 0h6m4.02 0h6m4 0h6.02m4 0h6m4.02 0h6m4 0h6.02m4 0h6m4.02 0h6m4 0h6.02m4 0h6.02m4 0h6m4.02 0h6m4 0h6.02m4 0h6m4.02 0h6m4 0h6.02m4 0h6m4.02 0h6m4 0h6.02m4 0h6m4.02 0h6m4 0h6.02m4 0h6.02m4 0h6m4.02 0h6m4 0h6.02m4 0h6m4.02 0h6m4 0h6.02m4 0h6m4.02 0h6m4 0h6.02m4 0h6.02m4 0h6m4.02 0h6m4 0h6.02m4 0h6m4.02 0h6m4 0h6.02m4 0h6m4.02 0h6m4 0h6.02m4 0h6m4.02 0h6m4 0h6.02m4 0h6.02m4 0h6m4.02 0h6m4 0h6.02m4 0h6m4.02 0h6m4 0h6.02m4 0h6m4.02 0h6m4 0h6.02m4 0h6.02m4 0h6m4 0h6.02m4 0H904m4 0h6m4.02 0h6m4 0h6.02m4 0h6m4.02 0h6m4 0h6.02m4 0h6m4.02 0h6m4 0h6.02m4 0h6.02m4 0h6m4.02 0h6m4 0h6.02m4 0h6m4.02 0h6m4 0h6.02m4 0h6m4.02 0h6m4 0h6.02m4 0h6m4.02 0h6m4 0h6.02m4 0h6.02m4 0h6m4.02 0h6m4 0h6.02m4 0h6m4.02 0h6m4 0h6.02m4 0h6m4.02 0h6m4 0h6.02m4 0h6.02m4 0h6m4.02 0h6m4 0h6.02m4 0h6m4.02 0h6m4 0h6.02m4 0h6m4.02 0h6m4 0h6.02m4 0h6m4.02 0h6m4 0h6.02m4 0h6.02m4 0h6m4.02 0h6m4 0h6.02m4 0h6m4.02 0h6m4 0h6.02m4 0h6m4.02 0h6m4 0h6.02m4 0h6.02m4 0h6m4 0h6.02m4 0h6.02m4 0h6m4.02 0h6m4 0h6.02m4 0h6m4.02 0h6m4 0h6.02m4 0h6m4.02 0h6m4 0h6.02m4 0h6.02m4 0h6m4.02 0h6m4 0h6.02m4 0h6m4.02 0h6m4 0h6.02m4 0h3v3m0 4v6m0 4v6m0 4v6m0 4v6m0 4v6m0 4v6m0 4v6m0 4v6m0 4v6m0 4v6m0 4v6m0 4v6m0 4v6m0 4v6m0 4v6m0 4v6m0 4v6m0 4v6m0 4v6m0 4v6m0 4v6m0 4v6m0 4v6m0 4v6m0 4v6m0 4v6m0 4v6m0 4v6m0 4v6m0 4v6m0 4v6m0 4v6m0 4v6m0 4v6m0 4v6m0 4v6m0 4v6m0 4v6m0 4v6m0 4v6m0 4v6m0 4v6m0 4v6m0 4v6m0 4v6m0 4v6m0 4v6m0 4v6m0 4v6m0 4v6m0 4v6m0 4v6m0 4v6m0 4v3h-3m-4 0h-6m-4 0H1639m-4 0h-6.02m-4 0h-6m-4.02 0h-6m-4 0h-6.02m-4 0h-6m-4.02 0h-6m-4 0h-6.02m-4 0h-6m-4.02 0h-6m-4 0h-6.02m-4 0h-6.02m-4 0h-6m-4.02 0h-6m-4 0h-6.02m-4 0h-6m-4.02 0h-6m-4 0h-6.02m-4 0h-6m-4.02 0h-6m-4 0h-6.02m-4 0h-6m-4.02 0h-6m-4 0h-6.02m-4 0h-6.02m-4 0h-6m-4.02 0h-6m-4 0h-6.02m-4 0h-6m-4.02 0h-6m-4 0h-6.02m-4 0h-6m-4.02 0h-6m-4 0h-6.02m-4 0h-6.02m-4 0h-6m-4 0h-6.02m-4 0h-6.02m-4 0h-6m-4.02 0h-6m-4 0h-6.02m-4 0h-6m-4.02 0h-6m-4 0h-6.02m-4 0h-6m-4.02 0h-6m-4 0h-6.02m-4 0h-6.02m-4 0h-6m-4.02 0h-6m-4 0h-6.02m-4 0h-6m-4.02 0h-6m-4 0h-6.02m-4 0h-6m-4.02 0h-6m-4 0h-6.02m-4 0h-6.02m-4 0h-6m-4 0h-6.02m-4 0h-6.02m-4 0h-6m-4.02 0h-6m-4 0h-6.02m-4 0h-6m-4.02 0h-6m-4 0h-6.02m-4 0h-6m-4.02 0h-6m-4 0h-6.02m-4 0H938m-4 0h-6m-4.02 0h-6m-4 0h-6.02m-4 0h-6m-4.02 0h-6m-4 0h-6.02m-4 0h-6m-4.02 0h-6m-4 0h-6.02m-4 0h-6m-4.02 0h-6m-4 0h-6.02m-4 0h-6.02m-4 0h-6m-4.02 0h-6m-4 0h-6.02m-4 0h-6m-4.02 0h-6m-4 0h-6.02m-4 0h-6m-4.02 0h-6m-4 0h-6.02m-4 0h-6.02m-4 0h-6m-4 0h-6.02m-4 0h-6.02m-4 0h-6m-4.02 0h-6m-4 0h-6.02m-4 0h-6m-4.02 0h-6m-4 0h-6.02m-4 0h-6m-4.02 0h-6m-4 0h-6.02m-4 0h-6.02m-4 0h-6m-4.02 0h-6m-4 0h-6.02m-4 0h-6m-4.02 0h-6m-4 0h-6.02m-4 0h-6m-4.02 0h-6m-4 0h-6.02m-4 0h-6.02m-4 0h-6m-4 0h-6.02m-4 0h-6.02m-4 0h-6m-4.02 0h-6m-4 0h-6.02m-4 0h-6m-4.02 0h-6m-4 0h-6.02m-4 0h-6m-4.02 0h-6m-4 0h-6.02m-4 0h-6.02m-4 0h-6m-4.02 0h-6m-4 0h-6.02m-4 0h-6m-4.02 0h-6m-4 0h-6.02m-4 0h-6m-4.02 0h-6m-4 0h-6.02m-4 0h-6m-4.02 0h-6m-4 0h-6.02m-4 0H217m-4 0h-6m-4.02 0h-3v-3m0-4v-6m0-4v-6m0-4v-6m0-4v-6m0-4v-6m0-4v-6m0-4v-6m0-4v-6m0-4v-6m0-4v-6m0-4v-6m0-4v-6m0-4v-6m0-4v-6m0-4v-6m0-4v-6m0-4v-6m0-4v-6m0-4v-6m0-4v-6m0-4v-6m0-4v-6m0-4v-6m0-4v-6m0-4v-6m0-4v-6m0-4v-6m0-4v-6m0-4v-6m0-4v-6m0-4v-6m0-4v-6m0-4v-6m0-4v-6m0-4v-6m0-4v-6m0-4v-6m0-4v-6m0-4v-6m0-4v-6m0-4v-6m0-4v-6m0-4v-6m0-4v-6m0-4v-6m0-4v-6m0-4v-6m0-4v-6m0-4v-6m0-4v-6m0-4v-6m0-4v-6m0-4v-6m0-4v-3h3"
              stroke="#000" stroke-width="2" fill="none"/>
        <use xlink:href="#u" transform="matrix(1,0,0,1,208,348) translate(680.125 15.6)"/>
        <path d="M314.55 954.75c0 2.62-2.13 4.75-4.75 4.75-2.63 0-4.75-2.13-4.75-4.75s2.12-4.75 4.75-4.75c2.62 0 4.75 2.13 4.75 4.75z"
              stroke="#000" stroke-width="2" fill="#fff"/>
        <path d="M309.8 959.5v13.3l10 15.2m-10-15.2l-10 15.2m0-23.75h20" stroke="#000" stroke-width="2" fill="none"/>
        <path d="M299.8 950h20v60h-20z" fill="none"/>
        <use xlink:href="#v" transform="matrix(1,0,0,1,219.79745410407827,987.9999999999999) translate(69.025 14.6)"/>
        <path d="M410.38 950h67.73l11.5 11.48v45.92h-79.22z" stroke="#000" stroke-width="2" fill="#fff"/>
        <path d="M478.1 950.95v10.53h10.54" stroke="#000" stroke-width="2" fill="#fff"/>
        <use xlink:href="#w" transform="matrix(1,0,0,1,415.38099789758445,955) translate(0 19.666666666666668)"/>
        <use xlink:href="#x"
             transform="matrix(1,0,0,1,415.38099789758445,955) translate(42.92592592592593 19.666666666666668)"/>
        <use xlink:href="#y" transform="matrix(1,0,0,1,415.38099789758445,955) translate(0 35.66666666666667)"/>
        <path d="M702.03 560h71.7v260h-71.7z" stroke="#000" stroke-width="2" fill="#fff"/>
        <use xlink:href="#z"
             transform="matrix(1,0,0,1,702.0289741422748,560) translate(21.505000000000003 132.665625)"/>
        <path d="M820 295.62V606c0 6.63-5.37 12-12 12h-14.76" stroke="#666" stroke-width="2" fill="none"/>
        <path d="M821 295.65h-2v-1.9l1 .87 1-.87z" fill="#666"/>
        <path d="M777.97 618l14.27-4.64v9.28z" stroke="#666" stroke-width="2" fill="#666"/>
        <path d="M775.74 680h95.57" stroke="#666" stroke-width="2" fill="none"/>
        <path d="M775.76 681h-1.02v-2h1.02z" fill="#666"/>
        <path d="M886.58 680l-14.27 4.64v-9.28z" stroke="#666" stroke-width="2" fill="#666"/>
        <path d="M246.45 449.6l40 65.6M246.47 449.63l-2.1-3.44" stroke="#19967d" stroke-width="2" fill="none"/>
        <path d="M294.4 528.23l-11.38-9.76 7.92-4.83z" stroke="#19967d" stroke-width="2" fill="#19967d"/>
        <path d="M357.1 450.15l-49.2 66.56-1.6-1.18 49.2-66.56z" fill="#19967d"/>
        <path d="M359.48 446.93l-2.4 3.24-1.6-1.2 2.4-3.23zM310.23 519.68l-12.2 8.7 4.74-14.2z" fill="#19967d"/>
        <path d="M311.93 519.7L296.1 531l6.16-18.46zm-12 6.1l8.6-6.14-5.25-3.87z" fill="#19967d"/>
        <use xlink:href="#A" transform="matrix(1,0,0,1,329.99633182104355,474.3317514782369) translate(0 14.4)"/>
        <path d="M1438 385.5H368.9c-6.64 0-12 5.37-12 12v3" stroke="#c92d39" stroke-width="2" fill="none"/>
        <path d="M1439 386.5h-1.03v-2h1.03z" fill="#c92d39"/>
        <path d="M356.9 415.76l-4.65-14.27h9.27z" stroke="#c92d39" stroke-width="2" fill="#c92d39"/>
        <path d="M743.8 978.12l55.52.36M743.8 978.12h-.5" stroke="#19967d" fill="none"/>
        <path d="M814.08 978.57l-14.3 4.55.07-9.27z" stroke="#19967d" fill="#19967d"/>
        <path d="M744.27 996.45l55.52.36M744.28 996.45h-.5" stroke="#c92d39" fill="none"/>
        <path d="M814.55 996.9l-14.3 4.55.07-9.27z" stroke="#c92d39" fill="#c92d39"/>
        <path d="M1226.3 599c0 40.32-31.93 73-71.3 73s-71.3-32.68-71.3-73 31.93-73 71.3-73 71.3 32.68 71.3 73z"
              stroke="#000" stroke-width="2" fill="#fff"/>
        <use xlink:href="#o" transform="matrix(1,0,0,1,1103.7103525370217,526) translate(16.049999999999997 65.8)"/>
        <use xlink:href="#p" transform="matrix(1,0,0,1,1103.7103525370217,526) translate(66.95 65.8)"/>
        <use xlink:href="#B" transform="matrix(1,0,0,1,1103.7103525370217,526) translate(-12.875 87.4)"/>
        <path d="M635.17 973.7c0 19.33-16.38 35-36.57 35-20.2 0-36.57-15.67-36.57-35s16.37-35 36.57-35 36.57 15.67 36.57 35z"
              stroke="#000" stroke-width="2" fill="#fff"/>
        <use xlink:href="#C"
             transform="matrix(1,0,0,1,582.0289741422748,938.6999999999999) translate(-7.425925925925931 21.666666666666664)"/>
        <use xlink:href="#x"
             transform="matrix(1,0,0,1,582.0289741422748,938.6999999999999) translate(9.592592592592592 37.666666666666664)"/>
        <use xlink:href="#y"
             transform="matrix(1,0,0,1,582.0289741422748,938.6999999999999) translate(-6.314814814814817 53.66666666666667)"/>
        <path d="M939.8 940h120v78.7h-120z" stroke="#000" stroke-width="2" fill="#fff"/>
        <use xlink:href="#D"
             transform="matrix(1,0,0,1,944.7974541040783,945) translate(24.999999999999993 30.072916666666668)"/>
        <use xlink:href="#E"
             transform="matrix(1,0,0,1,944.7974541040783,945) translate(70.18518518518519 30.072916666666668)"/>
        <use xlink:href="#F"
             transform="matrix(1,0,0,1,944.7974541040783,945) translate(9.148148148148138 46.07291666666667)"/>
        <use xlink:href="#G"
             transform="matrix(1,0,0,1,944.7974541040783,945) translate(57.99999999999999 46.07291666666667)"/>
        <use xlink:href="#H"
             transform="matrix(1,0,0,1,944.7974541040783,945) translate(66.11111111111111 46.07291666666667)"/>
        <path d="M1155 295.62V506.5" stroke="#666" stroke-width="2" fill="none"/>
        <path d="M1156 295.65h-2v-1.9l1 .87 1-.87z" fill="#666"/>
        <path d="M1155 521.76l-4.64-14.26h9.28z" stroke="#666" stroke-width="2" fill="#666"/>
        <path d="M890.8 640h104.82l16 16v64h-120.8z" stroke="#000" stroke-width="2" fill="#fff"/>
        <path d="M995.62 640.95V656h15.05" stroke="#000" stroke-width="2" fill="#fff"/>
        <use xlink:href="#I" transform="matrix(1,0,0,1,895.8119411752157,645) translate(0 27.525)"/>
        <use xlink:href="#p" transform="matrix(1,0,0,1,895.8119411752157,645) translate(44.9 27.525)"/>
        <use xlink:href="#J" transform="matrix(1,0,0,1,895.8119411752157,645) translate(0 49.125)"/>
        <path d="M1504.03 694h95.5c6.62 0 12-5.37 12-12V235.3c0-6.63-5.38-12-12-12h-9.5" stroke="#c92d39"
              stroke-width="2" fill="none"/>
        <path d="M1504.05 695h-1.02v-2h1.02z" fill="#c92d39"/>
        <path d="M1574.75 223.3l14.27-4.64v9.27z" stroke="#c92d39" stroke-width="2" fill="#c92d39"/>
        <path d="M562.03 120h1100v200h-1100z" fill-opacity="0"/>
        <path d="M569.03 120h6m4 0h6m4 0h6m4 0h6m4 0h6m4 0h6m4 0h6m4 0h6m4 0h6m4 0h6m4 0h6m4 0h6m4 0h6m4 0h6m4 0h6m4 0h6m4 0h6m4 0h6m4 0h6m4 0h6m4 0h6m4 0h6m4 0h6m4 0h6m4 0h6m4 0h6m4 0h6m4 0h6m4 0h6m4 0h6m4 0h6m4 0h6m4 0h6m4 0h6m4 0h6m4 0h6m4 0h6m4 0h6m4 0h6m4 0h6m4 0h6m4 0h6m4 0h6m4 0h6m4 0h6m4 0h6m4 0h6m4 0h6m4 0h6m4 0h6m4 0h6m4 0h6m4 0h6m4 0h6m4 0h6m4 0h6m4 0h6m4 0h6m4 0h6m4 0h6m4 0h6m4 0h6m4 0h6m4 0h6m4 0h6m4 0h6m4 0h6m4 0h6m4 0h6m4 0h6m4 0h6m4 0h6m4 0h6m4 0h6m4 0h6m4 0h6m4 0h6m4 0h6m4 0h6m4 0h6m4 0h6m4 0h6m4 0h6m4 0h6m4 0h6m4 0h6m4 0h6m4 0h6m4 0h6m4 0h6m4 0h6m4 0h6m4 0h6m4 0h6m4 0h6m4 0h6m4 0h6m4 0h6m4 0h6m4 0h6m4 0h6m4 0h6m4 0h6m4 0h6m4 0h6m4 0h6m4 0h6m4 0h6m4 0h6m4 0h3v3m0 4v6m0 4v6m0 4v6m0 4v6m0 4v6m0 4v6m0 4v6m0 4v6m0 4v6m0 4v6m0 4v6m0 4v6m0 4v6m0 4v6m0 4v6m0 4v6m0 4v6m0 4v6m0 4v6m0 4v3h-3m-4 0h-6m-4 0h-6m-4 0h-6m-4 0h-6m-4 0h-6m-4 0h-6m-4 0h-6m-4 0h-6m-4 0h-6m-4 0h-6m-4 0h-6m-4 0h-6m-4 0h-6m-4 0h-6m-4 0h-6m-4 0h-6m-4 0h-6m-4 0h-6m-4 0h-6m-4 0h-6m-4 0h-6m-4 0h-6m-4 0h-6m-4 0h-6m-4 0h-6m-4 0h-6m-4 0h-6m-4 0h-6m-4 0h-6m-4 0h-6m-4 0h-6m-4 0h-6m-4 0h-6m-4 0h-6m-4 0h-6m-4 0h-6m-4 0h-6m-4 0h-6m-4 0h-6m-4 0h-6m-4 0h-6m-4 0h-6m-4 0h-6m-4 0h-6m-4 0h-6m-4 0h-6m-4 0h-6m-4 0h-6m-4 0h-6m-4 0h-6m-4 0h-6m-4 0h-6m-4 0h-6m-4 0h-6m-4 0h-6m-4 0h-6m-4 0h-6m-4 0h-6m-4 0h-6m-4 0h-6m-4 0h-6m-4 0h-6m-4 0h-6m-4 0h-6m-4 0h-6m-4 0h-6m-4 0h-6m-4 0h-6m-4 0h-6m-4 0h-6m-4 0h-6m-4 0h-6m-4 0h-6m-4 0h-6m-4 0h-6m-4 0h-6m-4 0h-6m-4 0h-6m-4 0h-6m-4 0h-6m-4 0h-6m-4 0h-6m-4 0h-6m-4 0h-6m-4 0h-6m-4 0h-6m-4 0h-6m-4 0h-6m-4 0h-6m-4 0h-6m-4 0h-6m-4 0h-6m-4 0h-6m-4 0h-6m-4 0h-6m-4 0h-6m-4 0h-6m-4 0h-6m-4 0h-6m-4 0h-6m-4 0h-6m-4 0h-6m-4 0h-6m-4 0h-6m-4 0h-6m-4 0h-6m-4 0h-6m-4 0h-6m-4 0h-6m-4 0h-3v-3m0-4v-6m0-4v-6m0-4v-6m0-4v-6m0-4v-6m0-4v-6m0-4v-6m0-4v-6m0-4v-6m0-4v-6m0-4v-6m0-4v-6m0-4v-6m0-4v-6m0-4v-6m0-4v-6m0-4v-6m0-4v-6m0-4v-6m0-4v-3h3"
              stroke="#000" stroke-width="2" fill="none"/>
        <use xlink:href="#K" transform="matrix(1,0,0,1,570.0289741422748,128.00000000000003) translate(482.65 15.6)"/>
        <use xlink:href="#L" transform="matrix(1,0,0,1,570.0289741422748,128.00000000000003) translate(514.6 15.6)"/>
        <path d="M1139.8 948.7h60v60h-60z" fill-opacity="0"/>
        <path d="M1146.8 948.7h6m4 0h6m4 0h6m4 0h6m4 0h6m4 0h3v3m0 4v6m0 4v6m0 4v6m0 4v6m0 4v6m0 4v3h-3m-4 0h-6m-4 0h-6m-4 0h-6m-4 0h-6m-4 0h-6m-4 0h-3v-3m0-4v-6m0-4v-6m0-4v-6m0-4v-6m0-4v-6m0-4v-3h3"
              stroke="#000" stroke-width="2" fill="none"/>
        <use xlink:href="#M"
             transform="matrix(1,0,0,1,1147.7974541040783,956.6999999999999) translate(-1.6851851851851904 14.666666666666668)"/>
        <path d="M1490 295.62v35.88" stroke="#c92d39" stroke-width="2" fill="none"/>
        <path d="M1491 295.65h-2v-1.9l1 .87 1-.87z" fill="#c92d39"/>
        <path d="M1490 346.76l-4.64-14.26h9.28z" stroke="#c92d39" stroke-width="2" fill="#c92d39"/>
        <path d="M820 153.3l80 70-80 70-80-70z" stroke="#000" stroke-width="2" fill="#fff"/>
        <use xlink:href="#N" transform="matrix(1,0,0,1,740,153.29558621865198) translate(50.029999999999994 62.525)"/>
        <use xlink:href="#O" transform="matrix(1,0,0,1,740,153.29558621865198) translate(53.055 84.125)"/>
        <path d="M1155 153.3l80 70-80 70-80-70z" stroke="#000" stroke-width="2" fill="#fff"/>
        <use xlink:href="#P" transform="matrix(1,0,0,1,1075,153.29558621865198) translate(37.05499999999999 75.65)"/>
        <path d="M1490 153.3l80 70-80 70-80-70z" stroke="#000" stroke-width="2" fill="#fff"/>
        <use xlink:href="#Q" transform="matrix(1,0,0,1,1410,153.29558621865198) translate(46.57999999999999 53.41)"/>
        <use xlink:href="#R" transform="matrix(1,0,0,1,1410,153.29558621865198) translate(35.58 75.01)"/>
        <path d="M1329.8 928.7l50 50-50 50-50-50z" stroke="#000" stroke-width="2" fill="#fff"/>
        <use xlink:href="#S"
             transform="matrix(1,0,0,1,1279.7974541040783,928.6999999999999) translate(29.97413580246914 46.388888888888886)"/>
        <use xlink:href="#T"
             transform="matrix(1,0,0,1,1279.7974541040783,928.6999999999999) translate(31.501913580246917 59.72222222222223)"/>
        <path d="M670.8 940h220v40h-220z" stroke="#000" stroke-opacity="0" stroke-width="2" fill="#fff"
              fill-opacity="0"/>
        <use xlink:href="#U"
             transform="matrix(1,0,0,1,675.8119411752157,945) translate(38.75925925925925 18.166666666666668)"/>
        <use xlink:href="#V"
             transform="matrix(1,0,0,1,675.8119411752157,945) translate(107.57407407407408 18.166666666666668)"/>
        <use xlink:href="#W"
             transform="matrix(1,0,0,1,675.8119411752157,945) translate(126.0925925925926 18.166666666666668)"/>
        <path d="M670.8 1000h220v40h-220z" stroke="#000" stroke-opacity="0" stroke-width="2" fill="#fff"
              fill-opacity="0"/>
        <g>
            <use xlink:href="#U"
                 transform="matrix(1,0,0,1,675.8119411752157,1005) translate(43.962962962962955 18.166666666666668)"/>
            <use xlink:href="#V"
                 transform="matrix(1,0,0,1,675.8119411752157,1005) translate(112.77777777777777 18.166666666666668)"/>
            <use xlink:href="#H"
                 transform="matrix(1,0,0,1,675.8119411752157,1005) translate(131.2962962962963 18.166666666666668)"/>
        </g>
        <path d="M300.53 655.7c0 2.44-1.98 4.42-4.44 4.42-2.46 0-4.44-1.98-4.44-4.43 0-2.46 1.98-4.45 4.43-4.45 2.45 0 4.43 2 4.43 4.44z"
              stroke="#000" stroke-width="2" fill="#fff"/>
        <path d="M296.1 660.13v12.42l14.06 14.2m-14.07-14.2l-14.07 14.2m0-22.2h28.13" stroke="#000" stroke-width="2"
              fill="none"/>
        <path d="M282.03 651.25h28.13v57.5h-28.13z" fill="none"/>
        <g>
            <use xlink:href="#X"
                 transform="matrix(1,0,0,1,202.02897414227482,686.75) translate(39.12499999999999 14.4)"/>
            <use xlink:href="#l"
                 transform="matrix(1,0,0,1,202.02897414227482,686.75) translate(49.074999999999996 36)"/>
            <use xlink:href="#m" transform="matrix(1,0,0,1,202.02897414227482,686.75) translate(78.02499999999999 36)"/>
        </g>
        <path d="M305.88 680H392c4.42 0 8-3.58 8-8s3.58-8 8-8h8.66M305.9 680h-4.02" stroke="#19967d" stroke-width="2"
              fill="none"/>
        <path d="M431.93 664l-14.27 4.64v-9.28z" stroke="#19967d" stroke-width="2" fill="#19967d"/>
        <path d="M300.53 777.44c0 2.45-1.98 4.43-4.44 4.43-2.46 0-4.44-1.98-4.44-4.43 0-2.45 1.98-4.44 4.43-4.44 2.45 0 4.43 2 4.43 4.44z"
              stroke="#000" stroke-width="2" fill="#fff"/>
        <path d="M296.1 781.88v12.42l14.06 14.2m-14.07-14.2l-14.07 14.2m0-22.2h28.13" stroke="#000" stroke-width="2"
              fill="none"/>
        <path d="M282.03 773h28.13v57.5h-28.13z" fill="none"/>
        <g>
            <use xlink:href="#Y"
                 transform="matrix(1,0,0,1,202.02897414227482,808.5) translate(25.549999999999997 14.6)"/>
            <use xlink:href="#Z" transform="matrix(1,0,0,1,202.02897414227482,808.5) translate(94.45 14.6)"/>
            <use xlink:href="#aa" transform="matrix(1,0,0,1,202.02897414227482,808.5) translate(119.45 14.6)"/>
        </g>
        <path d="M300 795.8h88c6.63 0 12-5.36 12-12V676c0-6.63 5.37-12 12-12h4.66M300.03 795.8H296" stroke="#19967d"
              stroke-width="2" fill="none"/>
        <path d="M431.93 664l-14.27 4.64v-9.28z" stroke="#19967d" stroke-width="2" fill="#19967d"/>
        <path d="M1226.3 767.5c0 40.32-31.93 73-71.3 73s-71.3-32.68-71.3-73 31.93-73 71.3-73 71.3 32.68 71.3 73z"
              stroke="#000" stroke-width="2" fill="#fff"/>
        <g>
            <use xlink:href="#o"
                 transform="matrix(1,0,0,1,1103.7103525370217,694.5) translate(16.049999999999997 65.8)"/>
            <use xlink:href="#p" transform="matrix(1,0,0,1,1103.7103525370217,694.5) translate(66.95 65.8)"/>
            <use xlink:href="#ab"
                 transform="matrix(1,0,0,1,1103.7103525370217,694.5) translate(18.049999999999997 87.4)"/>
        </g>
        <path d="M1081.7 767.5H963.23c-6.63 0-12-5.37-12-12v-16" stroke="#494949" stroke-width="2" fill="none"/>
        <path d="M1082.7 767.5l.04 1h-1.06v-2h1.06z" fill="#494949"/>
        <path d="M951.22 724.24l4.63 14.26h-9.27z" stroke="#494949" stroke-width="2" fill="#494949"/>
        <path d="M1228.3 767.5h94.23" stroke="#c92d39" stroke-width="2" fill="none"/>
        <path d="M1228.32 768.5h-1.06l.03-1-.04-1h1.06z" fill="#c92d39"/>
        <path d="M1337.8 767.5l-14.27 4.64v-9.28z" stroke="#c92d39" stroke-width="2" fill="#c92d39"/>
        <defs>
            <path d="M212-179c-10-28-35-45-73-45-59 0-87 40-87 99 0 60 29 101 89 101 43 0 62-24 78-52l27 14C228-24 195 4 139 4 59 4 22-46 18-125c-6-104 99-153 187-111 19 9 31 26 39 46"
                  id="ac"/>
            <path d="M100-194c62-1 85 37 85 99 1 63-27 99-86 99S16-35 15-95c0-66 28-99 85-99zM99-20c44 1 53-31 53-75 0-43-8-75-51-75s-53 32-53 75 10 74 51 75"
                  id="ad"/>
            <path d="M117-194c89-4 53 116 60 194h-32v-121c0-31-8-49-39-48C34-167 62-67 57 0H25l-1-190h30c1 10-1 24 2 32 11-22 29-35 61-36"
                  id="ae"/>
            <path d="M108 0H70L1-190h34L89-25l56-165h34" id="af"/>
            <path d="M100-194c63 0 86 42 84 106H49c0 40 14 67 53 68 26 1 43-12 49-29l28 8c-11 28-37 45-77 45C44 4 14-33 15-96c1-61 26-98 85-98zm52 81c6-60-76-77-97-28-3 7-6 17-6 28h103"
                  id="ag"/>
            <path d="M96-169c-40 0-48 33-48 73s9 75 48 75c24 0 41-14 43-38l32 2c-6 37-31 61-74 61-59 0-76-41-82-99-10-93 101-131 147-64 4 7 5 14 7 22l-32 3c-4-21-16-35-41-35"
                  id="ah"/>
            <path d="M24-231v-30h32v30H24zM24 0v-190h32V0H24" id="ai"/>
            <path d="M135-143c-3-34-86-38-87 0 15 53 115 12 119 90S17 21 10-45l28-5c4 36 97 45 98 0-10-56-113-15-118-90-4-57 82-63 122-42 12 7 21 19 24 35"
                  id="aj"/>
            <g id="a">
                <use transform="matrix(0.05,0,0,0.05,0,0)" xlink:href="#ac"/>
                <use transform="matrix(0.05,0,0,0.05,12.950000000000001,0)" xlink:href="#ad"/>
                <use transform="matrix(0.05,0,0,0.05,22.950000000000003,0)" xlink:href="#ae"/>
                <use transform="matrix(0.05,0,0,0.05,32.95,0)" xlink:href="#af"/>
                <use transform="matrix(0.05,0,0,0.05,41.95,0)" xlink:href="#ag"/>
                <use transform="matrix(0.05,0,0,0.05,51.95,0)" xlink:href="#ae"/>
                <use transform="matrix(0.05,0,0,0.05,61.95,0)" xlink:href="#ah"/>
                <use transform="matrix(0.05,0,0,0.05,70.95,0)" xlink:href="#ai"/>
                <use transform="matrix(0.05,0,0,0.05,74.9,0)" xlink:href="#ad"/>
                <use transform="matrix(0.05,0,0,0.05,84.9,0)" xlink:href="#ae"/>
                <use transform="matrix(0.05,0,0,0.05,94.9,0)" xlink:href="#ag"/>
                <use transform="matrix(0.05,0,0,0.05,104.9,0)" xlink:href="#aj"/>
            </g>
            <path d="M136-208V0H84v-208H4v-40h212v40h-80" id="ak"/>
            <path d="M25-224v-37h50v37H25zM25 0v-190h50V0H25" id="al"/>
            <path d="M133-34C117-15 103 5 69 4 32 3 11-16 11-54c-1-60 55-63 116-61 1-26-3-47-28-47-18 1-26 9-28 27l-52-2c7-38 36-58 82-57s74 22 75 68l1 82c-1 14 12 18 25 15v27c-30 8-71 5-69-32zm-48 3c29 0 43-24 42-57-32 0-66-3-65 30 0 17 8 27 23 27"
                  id="am"/>
            <path d="M135-194c87-1 58 113 63 194h-50c-7-57 23-157-34-157-59 0-34 97-39 157H25l-1-190h47c2 12-1 28 3 38 12-26 28-41 61-42"
                  id="an"/>
            <path d="M195-6C206 82 75 100 31 46c-4-6-6-13-8-21l49-6c3 16 16 24 34 25 40 0 42-37 40-79-11 22-30 35-61 35-53 0-70-43-70-97 0-56 18-96 73-97 30 0 46 14 59 34l2-30h47zm-90-29c32 0 41-27 41-63 0-35-9-62-40-62-32 0-39 29-40 63 0 36 9 62 39 62"
                  id="ao"/>
            <path d="M85 4C-2 5 27-109 22-190h50c7 57-23 150 33 157 60-5 35-97 40-157h50l1 190h-47c-2-12 1-28-3-38-12 25-28 42-61 42"
                  id="ap"/>
            <path d="M144 0l-44-69L55 0H2l70-98-66-92h53l41 62 40-62h54l-67 91 71 99h-54" id="aq"/>
            <g id="b">
                <use transform="matrix(0.08641975308641976,0,0,0.08641975308641976,0,0)" xlink:href="#ak"/>
                <use transform="matrix(0.08641975308641976,0,0,0.08641975308641976,18.320987654320987,0)"
                     xlink:href="#al"/>
                <use transform="matrix(0.08641975308641976,0,0,0.08641975308641976,26.962962962962962,0)"
                     xlink:href="#am"/>
                <use transform="matrix(0.08641975308641976,0,0,0.08641975308641976,44.24691358024691,0)"
                     xlink:href="#an"/>
                <use transform="matrix(0.08641975308641976,0,0,0.08641975308641976,63.172839506172835,0)"
                     xlink:href="#ao"/>
                <use transform="matrix(0.08641975308641976,0,0,0.08641975308641976,82.09876543209876,0)"
                     xlink:href="#ap"/>
                <use transform="matrix(0.08641975308641976,0,0,0.08641975308641976,101.02469135802468,0)"
                     xlink:href="#al"/>
                <use transform="matrix(0.08641975308641976,0,0,0.08641975308641976,109.66666666666666,0)"
                     xlink:href="#aq"/>
            </g>
            <path d="M140-251c81 0 123 46 123 126C263-46 219 4 140 4 59 4 17-45 17-125s42-126 123-126zm0 227c63 0 89-41 89-101s-29-99-89-99c-61 0-89 39-89 99S79-25 140-24"
                  id="ar"/>
            <path d="M114-163C36-179 61-72 57 0H25l-1-190h30c1 12-1 29 2 39 6-27 23-49 58-41v29" id="as"/>
            <path d="M85-194c31 0 48 13 60 33l-1-100h32l1 261h-30c-2-10 0-23-3-31C134-8 116 4 85 4 32 4 16-35 15-94c0-66 23-100 70-100zm9 24c-40 0-46 34-46 75 0 40 6 74 45 74 42 0 51-32 51-76 0-42-9-74-50-73"
                  id="at"/>
            <g id="c">
                <use transform="matrix(0.05,0,0,0.05,0,0)" xlink:href="#ar"/>
                <use transform="matrix(0.05,0,0,0.05,14,0)" xlink:href="#as"/>
                <use transform="matrix(0.05,0,0,0.05,19.95,0)" xlink:href="#at"/>
                <use transform="matrix(0.05,0,0,0.05,29.950000000000003,0)" xlink:href="#ag"/>
                <use transform="matrix(0.05,0,0,0.05,39.95,0)" xlink:href="#ae"/>
            </g>
            <path d="M210-169c-67 3-38 105-44 169h-31v-121c0-29-5-50-35-48C34-165 62-65 56 0H25l-1-190h30c1 10-1 24 2 32 10-44 99-50 107 0 11-21 27-35 58-36 85-2 47 119 55 194h-31v-121c0-29-5-49-35-48"
                  id="au"/>
            <path d="M115-194c55 1 70 41 70 98S169 2 115 4C84 4 66-9 55-30l1 105H24l-1-265h31l2 30c10-21 28-34 59-34zm-8 174c40 0 45-34 45-75s-6-73-45-74c-42 0-51 32-51 76 0 43 10 73 51 73"
                  id="av"/>
            <path d="M141-36C126-15 110 5 73 4 37 3 15-17 15-53c-1-64 63-63 125-63 3-35-9-54-41-54-24 1-41 7-42 31l-33-3c5-37 33-52 76-52 45 0 72 20 72 64v82c-1 20 7 32 28 27v20c-31 9-61-2-59-35zM48-53c0 20 12 33 32 33 41-3 63-29 60-74-43 2-92-5-92 41"
                  id="aw"/>
            <g id="d">
                <use transform="matrix(0.05,0,0,0.05,0,0)" xlink:href="#ah"/>
                <use transform="matrix(0.05,0,0,0.05,9,0)" xlink:href="#ad"/>
                <use transform="matrix(0.05,0,0,0.05,19,0)" xlink:href="#au"/>
                <use transform="matrix(0.05,0,0,0.05,33.95,0)" xlink:href="#av"/>
                <use transform="matrix(0.05,0,0,0.05,43.95,0)" xlink:href="#as"/>
                <use transform="matrix(0.05,0,0,0.05,49.900000000000006,0)" xlink:href="#aw"/>
            </g>
            <g id="e">
                <use transform="matrix(0.05,0,0,0.05,0,0)" xlink:href="#ar"/>
                <use transform="matrix(0.05,0,0,0.05,14,0)" xlink:href="#as"/>
                <use transform="matrix(0.05,0,0,0.05,19.95,0)" xlink:href="#at"/>
                <use transform="matrix(0.05,0,0,0.05,29.950000000000003,0)" xlink:href="#ag"/>
                <use transform="matrix(0.05,0,0,0.05,39.95,0)" xlink:href="#ae"/>
            </g>
            <g id="f">
                <use transform="matrix(0.05,0,0,0.05,0,0)" xlink:href="#at"/>
                <use transform="matrix(0.05,0,0,0.05,10,0)" xlink:href="#ag"/>
            </g>
            <path d="M59-47c-2 24 18 29 38 22v24C64 9 27 4 27-40v-127H5v-23h24l9-43h21v43h35v23H59v120" id="ax"/>
            <g id="g">
                <use transform="matrix(0.05,0,0,0.05,0,0)" xlink:href="#af"/>
                <use transform="matrix(0.05,0,0,0.05,9,0)" xlink:href="#ag"/>
                <use transform="matrix(0.05,0,0,0.05,19,0)" xlink:href="#ae"/>
                <use transform="matrix(0.05,0,0,0.05,29,0)" xlink:href="#ax"/>
                <use transform="matrix(0.05,0,0,0.05,34,0)" xlink:href="#aw"/>
            </g>
            <path d="M205 0l-28-72H64L36 0H1l101-248h38L239 0h-34zm-38-99l-47-123c-12 45-31 82-46 123h93" id="ay"/>
            <g id="h">
                <use transform="matrix(0.05,0,0,0.05,0,0)" xlink:href="#ay"/>
                <use transform="matrix(0.05,0,0,0.05,12,0)" xlink:href="#ah"/>
                <use transform="matrix(0.05,0,0,0.05,21,0)" xlink:href="#ax"/>
                <use transform="matrix(0.05,0,0,0.05,26,0)" xlink:href="#ai"/>
                <use transform="matrix(0.05,0,0,0.05,29.950000000000003,0)" xlink:href="#af"/>
                <use transform="matrix(0.05,0,0,0.05,38.95,0)" xlink:href="#ad"/>
            </g>
            <g id="i">
                <use transform="matrix(0.05,0,0,0.05,0,0)" xlink:href="#ac"/>
                <use transform="matrix(0.05,0,0,0.05,12.950000000000001,0)" xlink:href="#ad"/>
                <use transform="matrix(0.05,0,0,0.05,22.950000000000003,0)" xlink:href="#au"/>
                <use transform="matrix(0.05,0,0,0.05,37.900000000000006,0)" xlink:href="#av"/>
                <use transform="matrix(0.05,0,0,0.05,47.900000000000006,0)" xlink:href="#as"/>
                <use transform="matrix(0.05,0,0,0.05,53.85,0)" xlink:href="#aw"/>
                <use transform="matrix(0.05,0,0,0.05,63.85,0)" xlink:href="#at"/>
                <use transform="matrix(0.05,0,0,0.05,73.85000000000001,0)" xlink:href="#ad"/>
                <use transform="matrix(0.05,0,0,0.05,83.85000000000001,0)" xlink:href="#as"/>
            </g>
            <path d="M137 0h-34L2-248h35l83 218 83-218h36" id="az"/>
            <g id="j">
                <use transform="matrix(0.05,0,0,0.05,0,0)" xlink:href="#az"/>
                <use transform="matrix(0.05,0,0,0.05,11,0)" xlink:href="#ag"/>
                <use transform="matrix(0.05,0,0,0.05,21,0)" xlink:href="#ae"/>
                <use transform="matrix(0.05,0,0,0.05,31,0)" xlink:href="#at"/>
                <use transform="matrix(0.05,0,0,0.05,41,0)" xlink:href="#ag"/>
                <use transform="matrix(0.05,0,0,0.05,51,0)" xlink:href="#at"/>
                <use transform="matrix(0.05,0,0,0.05,61,0)" xlink:href="#ad"/>
                <use transform="matrix(0.05,0,0,0.05,71,0)" xlink:href="#as"/>
            </g>
            <g id="k">
                <use transform="matrix(0.05,0,0,0.05,0,0)" xlink:href="#ar"/>
                <use transform="matrix(0.05,0,0,0.05,14,0)" xlink:href="#av"/>
                <use transform="matrix(0.05,0,0,0.05,24,0)" xlink:href="#ag"/>
                <use transform="matrix(0.05,0,0,0.05,34,0)" xlink:href="#as"/>
                <use transform="matrix(0.05,0,0,0.05,39.95,0)" xlink:href="#aw"/>
                <use transform="matrix(0.05,0,0,0.05,49.95,0)" xlink:href="#at"/>
                <use transform="matrix(0.05,0,0,0.05,59.95,0)" xlink:href="#ad"/>
                <use transform="matrix(0.05,0,0,0.05,69.95,0)" xlink:href="#as"/>
            </g>
            <path d="M24 0v-261h32V0H24" id="aA"/>
            <g id="l">
                <use transform="matrix(0.05,0,0,0.05,0,0)" xlink:href="#at"/>
                <use transform="matrix(0.05,0,0,0.05,10,0)" xlink:href="#ag"/>
                <use transform="matrix(0.05,0,0,0.05,20,0)" xlink:href="#aA"/>
            </g>
            <g id="m">
                <use transform="matrix(0.05,0,0,0.05,0,0)" xlink:href="#aj"/>
                <use transform="matrix(0.05,0,0,0.05,9,0)" xlink:href="#ai"/>
                <use transform="matrix(0.05,0,0,0.05,12.949999999999998,0)" xlink:href="#aj"/>
                <use transform="matrix(0.05,0,0,0.05,21.95,0)" xlink:href="#ax"/>
                <use transform="matrix(0.05,0,0,0.05,26.950000000000003,0)" xlink:href="#ag"/>
                <use transform="matrix(0.05,0,0,0.05,36.95,0)" xlink:href="#au"/>
                <use transform="matrix(0.05,0,0,0.05,51.900000000000006,0)" xlink:href="#aw"/>
            </g>
            <path d="M190 0L58-211 59 0H30v-248h39L202-35l-2-213h31V0h-41" id="aB"/>
            <path d="M101-234c-31-9-42 10-38 44h38v23H63V0H32v-167H5v-23h27c-7-52 17-82 69-68v24" id="aC"/>
            <path d="M100-194c62-1 85 37 85 99 1 63-27 99-86 99S16-35 15-95c0-66 28-99 85-99zM99-20c44 1 53-31 53-75 0-43-8-75-51-75s-53 32-53 75 10 74 51 75zM76-211c8-23 27-35 38-54h36v5l-58 49H76"
                  id="aD"/>
            <g id="n">
                <use transform="matrix(0.05,0,0,0.05,0,0)" xlink:href="#aB"/>
                <use transform="matrix(0.05,0,0,0.05,12.950000000000001,0)" xlink:href="#ad"/>
                <use transform="matrix(0.05,0,0,0.05,22.950000000000003,0)" xlink:href="#ax"/>
                <use transform="matrix(0.05,0,0,0.05,27.950000000000003,0)" xlink:href="#ai"/>
                <use transform="matrix(0.05,0,0,0.05,31.900000000000002,0)" xlink:href="#aC"/>
                <use transform="matrix(0.05,0,0,0.05,36.900000000000006,0)" xlink:href="#ai"/>
                <use transform="matrix(0.05,0,0,0.05,40.85000000000001,0)" xlink:href="#ah"/>
                <use transform="matrix(0.05,0,0,0.05,49.85000000000001,0)" xlink:href="#aw"/>
                <use transform="matrix(0.05,0,0,0.05,59.85,0)" xlink:href="#ah"/>
                <use transform="matrix(0.05,0,0,0.05,68.85000000000001,0)" xlink:href="#ai"/>
                <use transform="matrix(0.05,0,0,0.05,72.80000000000001,0)" xlink:href="#aD"/>
                <use transform="matrix(0.05,0,0,0.05,82.80000000000001,0)" xlink:href="#ae"/>
            </g>
            <path d="M240 0l2-218c-23 76-54 145-80 218h-23L58-218 59 0H30v-248h44l77 211c21-75 51-140 76-211h43V0h-30"
                  id="aE"/>
            <g id="o">
                <use transform="matrix(0.05,0,0,0.05,0,0)" xlink:href="#aE"/>
                <use transform="matrix(0.05,0,0,0.05,14.950000000000001,0)" xlink:href="#ad"/>
                <use transform="matrix(0.05,0,0,0.05,24.950000000000003,0)" xlink:href="#ax"/>
                <use transform="matrix(0.05,0,0,0.05,29.950000000000003,0)" xlink:href="#ad"/>
                <use transform="matrix(0.05,0,0,0.05,39.95,0)" xlink:href="#as"/>
            </g>
            <g id="p">
                <use transform="matrix(0.05,0,0,0.05,0,0)" xlink:href="#at"/>
                <use transform="matrix(0.05,0,0,0.05,10,0)" xlink:href="#ag"/>
            </g>
            <g id="q">
                <use transform="matrix(0.05,0,0,0.05,0,0)" xlink:href="#ae"/>
                <use transform="matrix(0.05,0,0,0.05,10,0)" xlink:href="#ad"/>
                <use transform="matrix(0.05,0,0,0.05,20,0)" xlink:href="#ax"/>
                <use transform="matrix(0.05,0,0,0.05,25,0)" xlink:href="#ai"/>
                <use transform="matrix(0.05,0,0,0.05,28.950000000000003,0)" xlink:href="#aC"/>
                <use transform="matrix(0.05,0,0,0.05,33.95,0)" xlink:href="#ai"/>
                <use transform="matrix(0.05,0,0,0.05,37.900000000000006,0)" xlink:href="#ah"/>
                <use transform="matrix(0.05,0,0,0.05,46.900000000000006,0)" xlink:href="#aw"/>
                <use transform="matrix(0.05,0,0,0.05,56.900000000000006,0)" xlink:href="#ah"/>
                <use transform="matrix(0.05,0,0,0.05,65.9,0)" xlink:href="#ai"/>
                <use transform="matrix(0.05,0,0,0.05,69.85000000000001,0)" xlink:href="#ad"/>
                <use transform="matrix(0.05,0,0,0.05,79.85000000000001,0)" xlink:href="#ae"/>
                <use transform="matrix(0.05,0,0,0.05,89.85000000000001,0)" xlink:href="#ag"/>
                <use transform="matrix(0.05,0,0,0.05,99.85000000000001,0)" xlink:href="#aj"/>
            </g>
            <path d="M24-248c120-7 223 5 221 122C244-46 201 0 124 0H24v-248zM76-40c74 7 117-18 117-86 0-67-45-88-117-82v168"
                  id="aF"/>
            <path d="M135-150c-39-12-60 13-60 57V0H25l-1-190h47c2 13-1 29 3 40 6-28 27-53 61-41v41" id="aG"/>
            <path d="M220-157c-53 9-28 100-34 157h-49v-107c1-27-5-49-29-50C55-147 81-57 75 0H25l-1-190h47c2 12-1 28 3 38 10-53 101-56 108 0 13-22 24-43 59-42 82 1 51 116 57 194h-49v-107c-1-25-5-48-29-50"
                  id="aH"/>
            <g id="r">
                <use transform="matrix(0.08641975308641976,0,0,0.08641975308641976,0,0)" xlink:href="#aF"/>
                <use transform="matrix(0.08641975308641976,0,0,0.08641975308641976,22.38271604938272,0)"
                     xlink:href="#al"/>
                <use transform="matrix(0.08641975308641976,0,0,0.08641975308641976,31.024691358024693,0)"
                     xlink:href="#am"/>
                <use transform="matrix(0.08641975308641976,0,0,0.08641975308641976,48.308641975308646,0)"
                     xlink:href="#ao"/>
                <use transform="matrix(0.08641975308641976,0,0,0.08641975308641976,67.23456790123457,0)"
                     xlink:href="#aG"/>
                <use transform="matrix(0.08641975308641976,0,0,0.08641975308641976,79.33333333333334,0)"
                     xlink:href="#am"/>
                <use transform="matrix(0.08641975308641976,0,0,0.08641975308641976,96.61728395061729,0)"
                     xlink:href="#aH"/>
                <use transform="matrix(0.08641975308641976,0,0,0.08641975308641976,124.27160493827162,0)"
                     xlink:href="#am"/>
            </g>
            <path d="M88-194c31-1 46 15 58 34l-1-101h50l1 261h-48c-2-10 0-23-3-31C134-8 116 4 84 4 32 4 16-41 15-95c0-56 19-97 73-99zm17 164c33 0 40-30 41-66 1-37-9-64-41-64s-38 30-39 65c0 43 13 65 39 65"
                  id="aI"/>
            <path d="M185-48c-13 30-37 53-82 52C43 2 14-33 14-96s30-98 90-98c62 0 83 45 84 108H66c0 31 8 55 39 56 18 0 30-7 34-22zm-45-69c5-46-57-63-70-21-2 6-4 13-4 21h74"
                  id="aJ"/>
            <g id="s">
                <use transform="matrix(0.08641975308641976,0,0,0.08641975308641976,0,0)" xlink:href="#aI"/>
                <use transform="matrix(0.08641975308641976,0,0,0.08641975308641976,18.925925925925927,0)"
                     xlink:href="#aJ"/>
            </g>
            <path d="M190-63c-7 42-38 67-86 67-59 0-84-38-90-98-12-110 154-137 174-36l-49 2c-2-19-15-32-35-32-30 0-35 28-38 64-6 74 65 87 74 30"
                  id="aK"/>
            <path d="M110-194c64 0 96 36 96 99 0 64-35 99-97 99-61 0-95-36-95-99 0-62 34-99 96-99zm-1 164c35 0 45-28 45-65 0-40-10-65-43-65-34 0-45 26-45 65 0 36 10 65 43 65"
                  id="aL"/>
            <path d="M115-3C79 11 28 4 28-45v-112H4v-33h27l15-45h31v45h36v33H77v99c-1 23 16 31 38 25v30" id="aM"/>
            <g id="t">
                <use transform="matrix(0.08641975308641976,0,0,0.08641975308641976,0,0)" xlink:href="#aK"/>
                <use transform="matrix(0.08641975308641976,0,0,0.08641975308641976,17.283950617283953,0)"
                     xlink:href="#aL"/>
                <use transform="matrix(0.08641975308641976,0,0,0.08641975308641976,36.20987654320988,0)"
                     xlink:href="#an"/>
                <use transform="matrix(0.08641975308641976,0,0,0.08641975308641976,55.13580246913581,0)"
                     xlink:href="#aM"/>
                <use transform="matrix(0.08641975308641976,0,0,0.08641975308641976,65.41975308641976,0)"
                     xlink:href="#aJ"/>
                <use transform="matrix(0.08641975308641976,0,0,0.08641975308641976,82.70370370370371,0)"
                     xlink:href="#aq"/>
                <use transform="matrix(0.08641975308641976,0,0,0.08641975308641976,99.98765432098766,0)"
                     xlink:href="#aM"/>
                <use transform="matrix(0.08641975308641976,0,0,0.08641975308641976,110.27160493827162,0)"
                     xlink:href="#aL"/>
            </g>
            <path d="M24 0v-248h52V0H24" id="aN"/>
            <path d="M175 0L67-191c6 58 2 128 3 191H24v-248h59L193-55c-6-58-2-129-3-193h46V0h-61" id="aO"/>
            <path d="M67-125c0 53 21 87 73 88 37 1 54-22 65-47l45 17C233-25 199 4 140 4 58 4 20-42 15-125 8-235 124-281 211-232c18 10 29 29 36 50l-46 12c-8-25-30-41-62-41-52 0-71 34-72 86"
                  id="aP"/>
            <path d="M24 0v-248h52v208h133V0H24" id="aQ"/>
            <path d="M238-95c0 69-44 99-111 99C63 4 22-25 22-93v-155h51v151c-1 38 19 59 55 60 90 1 49-130 58-211h52v153"
                  id="aR"/>
            <path d="M18-269v-5l45-45h45v8l-60 42H18zM24 0v-248h52V0H24" id="aS"/>
            <path d="M140-251c80 0 125 45 125 126S219 4 139 4C58 4 15-44 15-125s44-126 125-126zm-1 214c52 0 73-35 73-88 0-50-21-86-72-86-52 0-73 35-73 86s22 88 72 88"
                  id="aT"/>
            <g id="u">
                <use transform="matrix(0.05,0,0,0.05,0,0)" xlink:href="#aN"/>
                <use transform="matrix(0.05,0,0,0.05,5,0)" xlink:href="#aO"/>
                <use transform="matrix(0.05,0,0,0.05,17.950000000000003,0)" xlink:href="#aP"/>
                <use transform="matrix(0.05,0,0,0.05,30.900000000000006,0)" xlink:href="#aQ"/>
                <use transform="matrix(0.05,0,0,0.05,41.85000000000001,0)" xlink:href="#aR"/>
                <use transform="matrix(0.05,0,0,0.05,54.80000000000001,0)" xlink:href="#aS"/>
                <use transform="matrix(0.05,0,0,0.05,59.80000000000001,0)" xlink:href="#aF"/>
                <use transform="matrix(0.05,0,0,0.05,72.75000000000001,0)" xlink:href="#aT"/>
            </g>
            <g id="v">
                <use transform="matrix(0.05,0,0,0.05,0,0)" xlink:href="#ay"/>
                <use transform="matrix(0.05,0,0,0.05,12,0)" xlink:href="#ah"/>
                <use transform="matrix(0.05,0,0,0.05,21,0)" xlink:href="#ax"/>
                <use transform="matrix(0.05,0,0,0.05,26,0)" xlink:href="#ad"/>
                <use transform="matrix(0.05,0,0,0.05,36,0)" xlink:href="#as"/>
            </g>
            <path d="M115-194c53 0 69 39 70 98 0 66-23 100-70 100C84 3 66-7 56-30L54 0H23l1-261h32v101c10-23 28-34 59-34zm-8 174c40 0 45-34 45-75 0-40-5-75-45-74-42 0-51 32-51 76 0 43 10 73 51 73"
                  id="aU"/>
            <path d="M24-231v-30h32v30H24zM-9 49c24 4 33-6 33-30v-209h32V24c2 40-23 58-65 49V49" id="aV"/>
            <g id="w">
                <use transform="matrix(0.03703703703703704,0,0,0.03703703703703704,0,0)" xlink:href="#ar"/>
                <use transform="matrix(0.03703703703703704,0,0,0.03703703703703704,10.370370370370372,0)"
                     xlink:href="#aU"/>
                <use transform="matrix(0.03703703703703704,0,0,0.03703703703703704,17.77777777777778,0)"
                     xlink:href="#aV"/>
                <use transform="matrix(0.03703703703703704,0,0,0.03703703703703704,20.703703703703706,0)"
                     xlink:href="#ag"/>
                <use transform="matrix(0.03703703703703704,0,0,0.03703703703703704,28.111111111111114,0)"
                     xlink:href="#ax"/>
                <use transform="matrix(0.03703703703703704,0,0,0.03703703703703704,31.814814814814813,0)"
                     xlink:href="#ad"/>
            </g>
            <g id="x">
                <use transform="matrix(0.03703703703703704,0,0,0.03703703703703704,0,0)" xlink:href="#at"/>
                <use transform="matrix(0.03703703703703704,0,0,0.03703703703703704,7.407407407407408,0)"
                     xlink:href="#ag"/>
            </g>
            <path d="M177-190C167-65 218 103 67 71c-23-6-38-20-44-43l32-5c15 47 100 32 89-28v-30C133-14 115 1 83 1 29 1 15-40 15-95c0-56 16-97 71-98 29-1 48 16 59 35 1-10 0-23 2-32h30zM94-22c36 0 50-32 50-73 0-42-14-75-50-75-39 0-46 34-46 75s6 73 46 73"
                  id="aW"/>
            <g id="y">
                <use transform="matrix(0.03703703703703704,0,0,0.03703703703703704,0,0)" xlink:href="#ae"/>
                <use transform="matrix(0.03703703703703704,0,0,0.03703703703703704,7.407407407407408,0)"
                     xlink:href="#ag"/>
                <use transform="matrix(0.03703703703703704,0,0,0.03703703703703704,14.814814814814817,0)"
                     xlink:href="#aW"/>
                <use transform="matrix(0.03703703703703704,0,0,0.03703703703703704,22.222222222222225,0)"
                     xlink:href="#ad"/>
                <use transform="matrix(0.03703703703703704,0,0,0.03703703703703704,29.629629629629633,0)"
                     xlink:href="#ah"/>
                <use transform="matrix(0.03703703703703704,0,0,0.03703703703703704,36.296296296296305,0)"
                     xlink:href="#ai"/>
                <use transform="matrix(0.03703703703703704,0,0,0.03703703703703704,39.22222222222223,0)"
                     xlink:href="#ad"/>
            </g>
            <path d="M30-248c87 1 191-15 191 75 0 78-77 80-158 76V0H30v-248zm33 125c57 0 124 11 124-50 0-59-68-47-124-48v98"
                  id="aX"/>
            <path d="M33 0v-248h34V0H33" id="aY"/>
            <g id="z">
                <use transform="matrix(0.05,0,0,0.05,0,0)" xlink:href="#ay"/>
                <use transform="matrix(0.05,0,0,0.05,12,0)" xlink:href="#aX"/>
                <use transform="matrix(0.05,0,0,0.05,24,0)" xlink:href="#aY"/>
            </g>
            <g id="B">
                <use transform="matrix(0.05,0,0,0.05,0,0)" xlink:href="#ag"/>
                <use transform="matrix(0.05,0,0,0.05,10,0)" xlink:href="#au"/>
                <use transform="matrix(0.05,0,0,0.05,24.950000000000003,0)" xlink:href="#av"/>
                <use transform="matrix(0.05,0,0,0.05,34.95,0)" xlink:href="#aw"/>
                <use transform="matrix(0.05,0,0,0.05,44.95,0)" xlink:href="#as"/>
                <use transform="matrix(0.05,0,0,0.05,50.900000000000006,0)" xlink:href="#ag"/>
                <use transform="matrix(0.05,0,0,0.05,60.900000000000006,0)" xlink:href="#aV"/>
                <use transform="matrix(0.05,0,0,0.05,64.85000000000001,0)" xlink:href="#aw"/>
                <use transform="matrix(0.05,0,0,0.05,74.85000000000001,0)" xlink:href="#au"/>
                <use transform="matrix(0.05,0,0,0.05,89.80000000000001,0)" xlink:href="#ai"/>
                <use transform="matrix(0.05,0,0,0.05,93.75000000000001,0)" xlink:href="#ag"/>
                <use transform="matrix(0.05,0,0,0.05,103.75,0)" xlink:href="#ae"/>
                <use transform="matrix(0.05,0,0,0.05,113.75,0)" xlink:href="#ax"/>
                <use transform="matrix(0.05,0,0,0.05,118.75,0)" xlink:href="#ad"/>
            </g>
            <g id="C">
                <use transform="matrix(0.03703703703703704,0,0,0.03703703703703704,0,0)" xlink:href="#aX"/>
                <use transform="matrix(0.03703703703703704,0,0,0.03703703703703704,8.88888888888889,0)"
                     xlink:href="#as"/>
                <use transform="matrix(0.03703703703703704,0,0,0.03703703703703704,13.296296296296298,0)"
                     xlink:href="#ad"/>
                <use transform="matrix(0.03703703703703704,0,0,0.03703703703703704,20.703703703703706,0)"
                     xlink:href="#ah"/>
                <use transform="matrix(0.03703703703703704,0,0,0.03703703703703704,27.370370370370374,0)"
                     xlink:href="#ag"/>
                <use transform="matrix(0.03703703703703704,0,0,0.03703703703703704,34.777777777777786,0)"
                     xlink:href="#aj"/>
                <use transform="matrix(0.03703703703703704,0,0,0.03703703703703704,41.44444444444446,0)"
                     xlink:href="#ad"/>
            </g>
            <path d="M84 4C-5 8 30-112 23-190h32v120c0 31 7 50 39 49 72-2 45-101 50-169h31l1 190h-30c-1-10 1-25-2-33-11 22-28 36-60 37"
                  id="aZ"/>
            <g id="D">
                <use transform="matrix(0.03703703703703704,0,0,0.03703703703703704,0,0)" xlink:href="#aX"/>
                <use transform="matrix(0.03703703703703704,0,0,0.03703703703703704,8.88888888888889,0)"
                     xlink:href="#aZ"/>
                <use transform="matrix(0.03703703703703704,0,0,0.03703703703703704,16.296296296296298,0)"
                     xlink:href="#ae"/>
                <use transform="matrix(0.03703703703703704,0,0,0.03703703703703704,23.703703703703706,0)"
                     xlink:href="#ax"/>
                <use transform="matrix(0.03703703703703704,0,0,0.03703703703703704,27.407407407407412,0)"
                     xlink:href="#ad"/>
                <use transform="matrix(0.03703703703703704,0,0,0.03703703703703704,34.814814814814824,0)"
                     xlink:href="#aj"/>
            </g>
            <g id="E">
                <use transform="matrix(0.03703703703703704,0,0,0.03703703703703704,0,0)" xlink:href="#at"/>
                <use transform="matrix(0.03703703703703704,0,0,0.03703703703703704,7.407407407407408,0)"
                     xlink:href="#ag"/>
            </g>
            <g id="F">
                <use transform="matrix(0.03703703703703704,0,0,0.03703703703703704,0,0)" xlink:href="#ag"/>
                <use transform="matrix(0.03703703703703704,0,0,0.03703703703703704,7.407407407407408,0)"
                     xlink:href="#ae"/>
                <use transform="matrix(0.03703703703703704,0,0,0.03703703703703704,14.814814814814817,0)"
                     xlink:href="#ax"/>
                <use transform="matrix(0.03703703703703704,0,0,0.03703703703703704,18.51851851851852,0)"
                     xlink:href="#as"/>
                <use transform="matrix(0.03703703703703704,0,0,0.03703703703703704,22.925925925925927,0)"
                     xlink:href="#aw"/>
                <use transform="matrix(0.03703703703703704,0,0,0.03703703703703704,30.333333333333336,0)"
                     xlink:href="#at"/>
                <use transform="matrix(0.03703703703703704,0,0,0.03703703703703704,37.74074074074075,0)"
                     xlink:href="#aw"/>
            </g>
            <path d="M16-82v-28h88v28H16" id="ba"/>
            <use transform="matrix(0.03703703703703704,0,0,0.03703703703703704,0,0)" xlink:href="#ba" id="G"/>
            <g id="H">
                <use transform="matrix(0.03703703703703704,0,0,0.03703703703703704,0,0)" xlink:href="#aj"/>
                <use transform="matrix(0.03703703703703704,0,0,0.03703703703703704,6.666666666666668,0)"
                     xlink:href="#aw"/>
                <use transform="matrix(0.03703703703703704,0,0,0.03703703703703704,14.074074074074076,0)"
                     xlink:href="#aA"/>
                <use transform="matrix(0.03703703703703704,0,0,0.03703703703703704,17.000000000000004,0)"
                     xlink:href="#ai"/>
                <use transform="matrix(0.03703703703703704,0,0,0.03703703703703704,19.925925925925934,0)"
                     xlink:href="#at"/>
                <use transform="matrix(0.03703703703703704,0,0,0.03703703703703704,27.333333333333343,0)"
                     xlink:href="#aw"/>
            </g>
            <path d="M30 0v-248h33v221h125V0H30" id="bb"/>
            <g id="I">
                <use transform="matrix(0.05,0,0,0.05,0,0)" xlink:href="#bb"/>
                <use transform="matrix(0.05,0,0,0.05,10,0)" xlink:href="#ai"/>
                <use transform="matrix(0.05,0,0,0.05,13.949999999999998,0)" xlink:href="#aU"/>
                <use transform="matrix(0.05,0,0,0.05,23.95,0)" xlink:href="#as"/>
                <use transform="matrix(0.05,0,0,0.05,29.899999999999995,0)" xlink:href="#ad"/>
            </g>
            <g id="J">
                <use transform="matrix(0.05,0,0,0.05,0,0)" xlink:href="#aD"/>
                <use transform="matrix(0.05,0,0,0.05,10,0)" xlink:href="#as"/>
                <use transform="matrix(0.05,0,0,0.05,15.949999999999998,0)" xlink:href="#at"/>
                <use transform="matrix(0.05,0,0,0.05,25.950000000000003,0)" xlink:href="#ag"/>
                <use transform="matrix(0.05,0,0,0.05,35.95,0)" xlink:href="#ae"/>
                <use transform="matrix(0.05,0,0,0.05,45.95,0)" xlink:href="#ag"/>
                <use transform="matrix(0.05,0,0,0.05,55.95,0)" xlink:href="#aj"/>
            </g>
            <g id="K">
                <use transform="matrix(0.05,0,0,0.05,0,0)" xlink:href="#aO"/>
                <use transform="matrix(0.05,0,0,0.05,12.950000000000001,0)" xlink:href="#aT"/>
            </g>
            <g id="L">
                <use transform="matrix(0.05,0,0,0.05,0,0)" xlink:href="#aN"/>
                <use transform="matrix(0.05,0,0,0.05,5,0)" xlink:href="#aO"/>
                <use transform="matrix(0.05,0,0,0.05,17.950000000000003,0)" xlink:href="#aP"/>
                <use transform="matrix(0.05,0,0,0.05,30.900000000000006,0)" xlink:href="#aQ"/>
                <use transform="matrix(0.05,0,0,0.05,41.85000000000001,0)" xlink:href="#aR"/>
                <use transform="matrix(0.05,0,0,0.05,54.80000000000001,0)" xlink:href="#aS"/>
                <use transform="matrix(0.05,0,0,0.05,59.80000000000001,0)" xlink:href="#aF"/>
                <use transform="matrix(0.05,0,0,0.05,72.75000000000001,0)" xlink:href="#aT"/>
            </g>
            <g id="M">
                <use transform="matrix(0.03703703703703704,0,0,0.03703703703703704,0,0)" xlink:href="#ay"/>
                <use transform="matrix(0.03703703703703704,0,0,0.03703703703703704,8.88888888888889,0)"
                     xlink:href="#aA"/>
                <use transform="matrix(0.03703703703703704,0,0,0.03703703703703704,11.814814814814817,0)"
                     xlink:href="#ah"/>
                <use transform="matrix(0.03703703703703704,0,0,0.03703703703703704,18.481481481481485,0)"
                     xlink:href="#aw"/>
                <use transform="matrix(0.03703703703703704,0,0,0.03703703703703704,25.888888888888893,0)"
                     xlink:href="#ae"/>
                <use transform="matrix(0.03703703703703704,0,0,0.03703703703703704,33.296296296296305,0)"
                     xlink:href="#ah"/>
                <use transform="matrix(0.03703703703703704,0,0,0.03703703703703704,39.962962962962976,0)"
                     xlink:href="#ag"/>
            </g>
            <path d="M141-36C126-15 110 5 73 4 37 3 15-17 15-53c-1-64 63-63 125-63 3-35-9-54-41-54-24 1-41 7-42 31l-33-3c5-37 33-52 76-52 45 0 72 20 72 64v82c-1 20 7 32 28 27v20c-31 9-61-2-59-35zM48-53c0 20 12 33 32 33 41-3 63-29 60-74-43 2-92-5-92 41zm25-158c8-23 27-35 38-54h36v5l-58 49H73"
                  id="bc"/>
            <path d="M9 0v-24l116-142H16v-24h144v24L44-24h123V0H9" id="bd"/>
            <g id="N">
                <use transform="matrix(0.05,0,0,0.05,0,0)" xlink:href="#aY"/>
                <use transform="matrix(0.05,0,0,0.05,5,0)" xlink:href="#ae"/>
                <use transform="matrix(0.05,0,0,0.05,15,0)" xlink:href="#ax"/>
                <use transform="matrix(0.05,0,0,0.05,20,0)" xlink:href="#ag"/>
                <use transform="matrix(0.05,0,0,0.05,30,0)" xlink:href="#as"/>
                <use transform="matrix(0.05,0,0,0.05,35.95,0)" xlink:href="#aC"/>
                <use transform="matrix(0.05,0,0,0.05,40.95,0)" xlink:href="#bc"/>
                <use transform="matrix(0.05,0,0,0.05,50.95,0)" xlink:href="#bd"/>
            </g>
            <g id="O">
                <use transform="matrix(0.05,0,0,0.05,0,0)" xlink:href="#aW"/>
                <use transform="matrix(0.05,0,0,0.05,10,0)" xlink:href="#as"/>
                <use transform="matrix(0.05,0,0,0.05,15.949999999999998,0)" xlink:href="#bc"/>
                <use transform="matrix(0.05,0,0,0.05,25.950000000000003,0)" xlink:href="#aC"/>
                <use transform="matrix(0.05,0,0,0.05,30.950000000000003,0)" xlink:href="#ai"/>
                <use transform="matrix(0.05,0,0,0.05,34.9,0)" xlink:href="#ah"/>
                <use transform="matrix(0.05,0,0,0.05,43.9,0)" xlink:href="#aw"/>
            </g>
            <path d="M185-189c-5-48-123-54-124 2 14 75 158 14 163 119 3 78-121 87-175 55-17-10-28-26-33-46l33-7c5 56 141 63 141-1 0-78-155-14-162-118-5-82 145-84 179-34 5 7 8 16 11 25"
                  id="be"/>
            <g id="P">
                <use transform="matrix(0.05,0,0,0.05,0,0)" xlink:href="#be"/>
                <use transform="matrix(0.05,0,0,0.05,12,0)" xlink:href="#ag"/>
                <use transform="matrix(0.05,0,0,0.05,22,0)" xlink:href="#ax"/>
                <use transform="matrix(0.05,0,0,0.05,27,0)" xlink:href="#ax"/>
                <use transform="matrix(0.05,0,0,0.05,32,0)" xlink:href="#aA"/>
                <use transform="matrix(0.05,0,0,0.05,35.95,0)" xlink:href="#ag"/>
                <use transform="matrix(0.05,0,0,0.05,45.95,0)" xlink:href="#au"/>
                <use transform="matrix(0.05,0,0,0.05,60.900000000000006,0)" xlink:href="#ag"/>
                <use transform="matrix(0.05,0,0,0.05,70.9,0)" xlink:href="#ae"/>
                <use transform="matrix(0.05,0,0,0.05,80.9,0)" xlink:href="#ax"/>
            </g>
            <g id="Q">
                <use transform="matrix(0.05,0,0,0.05,0,0)" xlink:href="#be"/>
                <use transform="matrix(0.05,0,0,0.05,12,0)" xlink:href="#ag"/>
                <use transform="matrix(0.05,0,0,0.05,22,0)" xlink:href="#as"/>
                <use transform="matrix(0.05,0,0,0.05,27.950000000000003,0)" xlink:href="#af"/>
                <use transform="matrix(0.05,0,0,0.05,36.95,0)" xlink:href="#ai"/>
                <use transform="matrix(0.05,0,0,0.05,40.900000000000006,0)" xlink:href="#at"/>
                <use transform="matrix(0.05,0,0,0.05,50.900000000000006,0)" xlink:href="#ad"/>
                <use transform="matrix(0.05,0,0,0.05,60.900000000000006,0)" xlink:href="#as"/>
            </g>
            <path d="M34 0v-190h32V0H34zM24-211c8-23 27-35 38-54h36v5l-58 49H24" id="bf"/>
            <g id="R">
                <use transform="matrix(0.05,0,0,0.05,0,0)" xlink:href="#au"/>
                <use transform="matrix(0.05,0,0,0.05,14.950000000000001,0)" xlink:href="#ag"/>
                <use transform="matrix(0.05,0,0,0.05,24.950000000000003,0)" xlink:href="#ae"/>
                <use transform="matrix(0.05,0,0,0.05,34.95,0)" xlink:href="#aj"/>
                <use transform="matrix(0.05,0,0,0.05,43.95,0)" xlink:href="#aw"/>
                <use transform="matrix(0.05,0,0,0.05,53.95,0)" xlink:href="#aV"/>
                <use transform="matrix(0.05,0,0,0.05,57.900000000000006,0)" xlink:href="#ag"/>
                <use transform="matrix(0.05,0,0,0.05,67.9,0)" xlink:href="#as"/>
                <use transform="matrix(0.05,0,0,0.05,73.85000000000001,0)" xlink:href="#bf"/>
                <use transform="matrix(0.05,0,0,0.05,78.85000000000001,0)" xlink:href="#aw"/>
            </g>
            <g id="S">
                <use transform="matrix(0.030864197530864196,0,0,0.030864197530864196,0,0)" xlink:href="#be"/>
                <use transform="matrix(0.030864197530864196,0,0,0.030864197530864196,7.4074074074074066,0)"
                     xlink:href="#ai"/>
                <use transform="matrix(0.030864197530864196,0,0,0.030864197530864196,9.845679012345677,0)"
                     xlink:href="#aj"/>
                <use transform="matrix(0.030864197530864196,0,0,0.030864197530864196,15.401234567901232,0)"
                     xlink:href="#ax"/>
                <use transform="matrix(0.030864197530864196,0,0,0.030864197530864196,18.48765432098765,0)"
                     xlink:href="#ag"/>
                <use transform="matrix(0.030864197530864196,0,0,0.030864197530864196,24.66049382716049,0)"
                     xlink:href="#au"/>
                <use transform="matrix(0.030864197530864196,0,0,0.030864197530864196,33.888888888888886,0)"
                     xlink:href="#aw"/>
            </g>
            <path d="M141 0L90-78 38 0H4l68-98-65-92h35l48 74 47-74h35l-64 92 68 98h-35" id="bg"/>
            <g id="T">
                <use transform="matrix(0.030864197530864196,0,0,0.030864197530864196,0,0)" xlink:href="#ag"/>
                <use transform="matrix(0.030864197530864196,0,0,0.030864197530864196,6.172839506172839,0)"
                     xlink:href="#bg"/>
                <use transform="matrix(0.030864197530864196,0,0,0.030864197530864196,11.728395061728396,0)"
                     xlink:href="#ax"/>
                <use transform="matrix(0.030864197530864196,0,0,0.030864197530864196,14.814814814814815,0)"
                     xlink:href="#ag"/>
                <use transform="matrix(0.030864197530864196,0,0,0.030864197530864196,20.987654320987655,0)"
                     xlink:href="#as"/>
                <use transform="matrix(0.030864197530864196,0,0,0.030864197530864196,24.660493827160494,0)"
                     xlink:href="#ae"/>
                <use transform="matrix(0.030864197530864196,0,0,0.030864197530864196,30.833333333333332,0)"
                     xlink:href="#ad"/>
            </g>
            <g id="U">
                <use transform="matrix(0.03703703703703704,0,0,0.03703703703703704,0,0)" xlink:href="#aY"/>
                <use transform="matrix(0.03703703703703704,0,0,0.03703703703703704,3.703703703703704,0)"
                     xlink:href="#ae"/>
                <use transform="matrix(0.03703703703703704,0,0,0.03703703703703704,11.111111111111112,0)"
                     xlink:href="#ax"/>
                <use transform="matrix(0.03703703703703704,0,0,0.03703703703703704,14.814814814814817,0)"
                     xlink:href="#ag"/>
                <use transform="matrix(0.03703703703703704,0,0,0.03703703703703704,22.222222222222225,0)"
                     xlink:href="#as"/>
                <use transform="matrix(0.03703703703703704,0,0,0.03703703703703704,26.629629629629633,0)"
                     xlink:href="#aw"/>
                <use transform="matrix(0.03703703703703704,0,0,0.03703703703703704,34.03703703703704,0)"
                     xlink:href="#ah"/>
                <use transform="matrix(0.03703703703703704,0,0,0.03703703703703704,40.70370370370371,0)"
                     xlink:href="#ah"/>
                <use transform="matrix(0.03703703703703704,0,0,0.03703703703703704,47.37037037037039,0)"
                     xlink:href="#ai"/>
                <use transform="matrix(0.03703703703703704,0,0,0.03703703703703704,50.296296296296305,0)"
                     xlink:href="#aD"/>
                <use transform="matrix(0.03703703703703704,0,0,0.03703703703703704,57.70370370370371,0)"
                     xlink:href="#ae"/>
            </g>
            <g id="V">
                <use transform="matrix(0.03703703703703704,0,0,0.03703703703703704,0,0)" xlink:href="#at"/>
                <use transform="matrix(0.03703703703703704,0,0,0.03703703703703704,7.407407407407408,0)"
                     xlink:href="#ag"/>
            </g>
            <g id="W">
                <use transform="matrix(0.03703703703703704,0,0,0.03703703703703704,0,0)" xlink:href="#ag"/>
                <use transform="matrix(0.03703703703703704,0,0,0.03703703703703704,7.407407407407408,0)"
                     xlink:href="#ae"/>
                <use transform="matrix(0.03703703703703704,0,0,0.03703703703703704,14.814814814814817,0)"
                     xlink:href="#ax"/>
                <use transform="matrix(0.03703703703703704,0,0,0.03703703703703704,18.51851851851852,0)"
                     xlink:href="#as"/>
                <use transform="matrix(0.03703703703703704,0,0,0.03703703703703704,22.925925925925927,0)"
                     xlink:href="#aw"/>
                <use transform="matrix(0.03703703703703704,0,0,0.03703703703703704,30.333333333333336,0)"
                     xlink:href="#at"/>
                <use transform="matrix(0.03703703703703704,0,0,0.03703703703703704,37.74074074074075,0)"
                     xlink:href="#aw"/>
            </g>
            <g id="X">
                <use transform="matrix(0.05,0,0,0.05,0,0)" xlink:href="#ay"/>
                <use transform="matrix(0.05,0,0,0.05,12,0)" xlink:href="#at"/>
                <use transform="matrix(0.05,0,0,0.05,22,0)" xlink:href="#au"/>
                <use transform="matrix(0.05,0,0,0.05,36.95,0)" xlink:href="#ai"/>
                <use transform="matrix(0.05,0,0,0.05,40.900000000000006,0)" xlink:href="#ae"/>
                <use transform="matrix(0.05,0,0,0.05,50.900000000000006,0)" xlink:href="#ai"/>
                <use transform="matrix(0.05,0,0,0.05,54.85,0)" xlink:href="#aj"/>
                <use transform="matrix(0.05,0,0,0.05,63.85,0)" xlink:href="#ax"/>
                <use transform="matrix(0.05,0,0,0.05,68.85000000000001,0)" xlink:href="#as"/>
                <use transform="matrix(0.05,0,0,0.05,74.80000000000001,0)" xlink:href="#aw"/>
                <use transform="matrix(0.05,0,0,0.05,84.80000000000001,0)" xlink:href="#at"/>
                <use transform="matrix(0.05,0,0,0.05,94.80000000000001,0)" xlink:href="#ad"/>
                <use transform="matrix(0.05,0,0,0.05,104.80000000000001,0)" xlink:href="#as"/>
            </g>
            <g id="Y">
                <use transform="matrix(0.05,0,0,0.05,0,0)" xlink:href="#ay"/>
                <use transform="matrix(0.05,0,0,0.05,12,0)" xlink:href="#ae"/>
                <use transform="matrix(0.05,0,0,0.05,22,0)" xlink:href="#aw"/>
                <use transform="matrix(0.05,0,0,0.05,32,0)" xlink:href="#aA"/>
                <use transform="matrix(0.05,0,0,0.05,35.95,0)" xlink:href="#ai"/>
                <use transform="matrix(0.05,0,0,0.05,39.900000000000006,0)" xlink:href="#aj"/>
                <use transform="matrix(0.05,0,0,0.05,48.900000000000006,0)" xlink:href="#ax"/>
                <use transform="matrix(0.05,0,0,0.05,53.900000000000006,0)" xlink:href="#aw"/>
            </g>
            <g id="Z">
                <use transform="matrix(0.05,0,0,0.05,0,0)" xlink:href="#at"/>
                <use transform="matrix(0.05,0,0,0.05,10,0)" xlink:href="#ag"/>
            </g>
            <g id="aa">
                <use transform="matrix(0.05,0,0,0.05,0,0)" xlink:href="#at"/>
                <use transform="matrix(0.05,0,0,0.05,10,0)" xlink:href="#aw"/>
                <use transform="matrix(0.05,0,0,0.05,20,0)" xlink:href="#ax"/>
                <use transform="matrix(0.05,0,0,0.05,25,0)" xlink:href="#ad"/>
                <use transform="matrix(0.05,0,0,0.05,35,0)" xlink:href="#aj"/>
            </g>
            <g id="ab">
                <use transform="matrix(0.05,0,0,0.05,0,0)" xlink:href="#aw"/>
                <use transform="matrix(0.05,0,0,0.05,10,0)" xlink:href="#ae"/>
                <use transform="matrix(0.05,0,0,0.05,20,0)" xlink:href="#aw"/>
                <use transform="matrix(0.05,0,0,0.05,30,0)" xlink:href="#aA"/>
                <use transform="matrix(0.05,0,0,0.05,33.95,0)" xlink:href="#bf"/>
                <use transform="matrix(0.05,0,0,0.05,38.95,0)" xlink:href="#ax"/>
                <use transform="matrix(0.05,0,0,0.05,43.95,0)" xlink:href="#ai"/>
                <use transform="matrix(0.05,0,0,0.05,47.900000000000006,0)" xlink:href="#ah"/>
                <use transform="matrix(0.05,0,0,0.05,56.900000000000006,0)" xlink:href="#aw"/>
            </g>
        </defs>
    </g>
</svg>